<?xml version="1.0"?>
<svg xmlns="http://www.w3.org/2000/svg" xmlns:xlink="http://www.w3.org/1999/xlink" xmlns:svgjs="http://svgjs.com/svgjs" version="1.1" width="512" height="512" x="0" y="0" viewBox="0 0 436.257 436.257" style="enable-background:new 0 0 512 512" xml:space="preserve" class=""><g>
<g xmlns="http://www.w3.org/2000/svg">
	<path d="M395.289,152.15c3.35,7.12-0.14,14.27-9.3,20.28c2.11,13.17,2.28,26.02-15.41,30.2c4.7,36.65,5.25,73.39,22.87,106.62   c0.52,0.97,1,1.97,1.39,3c4.21,10.94,2.71,15.74-7.58,21.96c-4.91,2.97-9.47,5.81-9.29,11.72c3.58,5.25,7.76,9.64,9.89,14.86   c4.53,11.15-0.12,19.23-12.37,22.07c-16.12,3.73-32.42,6.72-48.55,10.39c-40.54,9.23-81,18.84-121.56,27.94   c-22.6,5.07-45.32,9.67-68.07,14.04c-18.86,3.62-29.95-2.11-35.81-20.7c-5.51-17.46-9.96-35.48-12.55-53.58   c-8.89-62.02-22.41-123.04-37.16-183.86c-4.85-20-8.07-40.4-12.11-60.6c-1.14-5.7-0.11-10.76,2.79-15.86   c10.24-18.05,23.26-34.03,36.43-49.91c2.17-2.62,4.25-5.1,8.36-3.38c1.06,0.45,2.86-0.29,4.11-0.91   c21.76-10.82,45.57-14.06,68.97-18.87c24.5-5.03,48.79-11.25,73.44-15.21c19.52-3.14,39.44-3.79,59.2-5.3   c10.29-0.79,20.48-1.61,29.62-7.05c1.47,0,2.95,0,4.42,0c5.13,2.92,7.58,7.35,8.79,13.14c3.91,18.73,8.3,37.35,12.36,56.05   c0.78,3.57,0.95,7.28,1.26,10.94c1.44,17.12,2.83,34.24,4.24,51.34c6.12,0.85,11.66,0.16,15.09,2.53   c3.29,2.28,4.39,7.72,7.01,12.86C381.749,146.5,390.709,142.39,395.289,152.15z M381.449,166.06c7.75-1.89,8.19-3.37,6.14-14.14   c-6.91,0.75-14.07,1.14-21.08,2.4c-9.43,1.69-10.52,3.54-10.42,16.41C365.229,169.09,373.449,168.02,381.449,166.06z    M387.369,323.76c-5.66-13.3-11.23-26.39-17.37-40.84c-18.57,17.35-35.74,34.61-48.12,57.57c16.23-2.78,31.26-5.74,46.43-7.78   C375.669,331.72,381.419,328.61,387.369,323.76z M381.539,370.83c-2.09-6.6-3.67-11.62-5.26-16.64c-0.82-0.01-1.65-0.01-2.47-0.01   c-2.63,4.36-4.34,10-8.14,12.74c-3.98,2.88-9.97,2.97-15.08,4.3c-1.06,0.28-2.54,0.36-3.06,1.08c-1.03,1.45-1.53,3.28-3.27,7.31   C357.699,376.44,368.859,373.82,381.539,370.83z M366.509,192.64c10.28-2.39,12.55-6.78,8.34-18.04   c-5.27,0.37-10.73,0.76-16.19,1.12c-8.59,0.57-10.56-1.51-10.24-9.74c0.35-9.2,4.23-15.36,13.49-17.64   c1.63-0.4,3.14-1.29,4.96-2.06c-0.43-2.35-0.74-4.05-1.24-6.81c-6.72,1.79-11.95,4.22-17.26,4.4c-17.14,0.57-33.03,6.25-49.4,10.27   c-12.81,3.14-17.45,10.69-18,22.53c-0.13,2.93-0.2,5.89-0.04,8.82c1.1,19.94,8.37,25.44,27.74,20.88   C327.959,201.84,347.209,197.13,366.509,192.64z M364.739,278.28c3.26-2.77,3.81-5.39,3.44-9.51c-1.59-17.57-2.68-35.19-3.84-52.8   c-0.25-3.86-0.04-7.75-0.04-12.6c-8.73,2.16-15.77,4.16-22.92,5.61c-14.39,2.91-28.74,6.49-43.3,7.95   c-13.61,1.37-20.73-3.94-24.44-17.2c-2.12-7.61-2.2-15.97-2.16-23.98c0.11-18.71,4.06-24.16,21.94-29.45   c16.1-4.77,32.46-8.63,48.95-12.96c-1.32-17.13-2.67-34.63-4.01-52.08c-14.23-4.49-27.46-10.75-38.23-21.15   c-12.17-11.75-24.13-23.73-35.81-35.96c-2.93-3.06-5.74-4.32-9.65-3.7c-10.88,1.72-21.83,3.15-32.64,5.29   c-29.58,5.84-59.08,12.1-88.66,17.96c-14.47,2.87-28.83,5.95-43.77,13.31c1.3,10.53,2.04,20.79,3.89,30.84   c8,43.45,17.62,86.53,29.76,129.02c1.92,6.71,3.47,13.56,4.7,20.43c6.59,36.58,13.2,73.15,19.33,109.8   c1.18,7.04,3.57,14.39,1.44,22.37c-1.53-1.11-2.46-1.42-2.61-1.94c-5.48-20.24-11.95-40.28-16.03-60.8   c-4.74-23.79-6.9-48.08-11.07-71.99c-2.9-16.65-7.78-32.95-10.93-49.57c-7.85-41.46-15.23-83.02-23.08-126.1   c-2.99,2.8-5.64,4.66-7.48,7.12c-7.52,10.02-14.35,20.58-22.27,30.26c-9.32,11.41-6.18,22.58-1.49,35.87   c6.76-11.31,12.64-21.16,18.53-31c0.67,0.38,1.35,0.77,2.03,1.16c-5.41,10.32-10.52,20.81-16.34,30.88   c-3.64,6.3-3.52,11.8,0.79,18.71c6.29-12.33,12.09-23.69,17.89-35.05c0.79,0.37,1.58,0.74,2.37,1.11   c-5.21,11.59-10.01,23.4-15.78,34.71c-3.74,7.31-4.52,13.93,0.02,21.91c6.9-13.17,13.41-25.61,19.92-38.04   c0.71,0.32,1.42,0.63,2.13,0.95c-0.91,2.69-1.6,5.48-2.75,8.06c-4.52,10.07-9.14,20.11-13.81,30.12   c-5.39,11.55-5.2,15.29,2.02,28.45c5.09-12.43,10.03-24.51,14.98-36.59c0.76,0.27,1.53,0.55,2.29,0.82   c-1.25,4.52-2.24,9.13-3.8,13.54c-3.32,9.37-7.04,18.6-10.41,27.95c-2.61,7.25-0.81,15.95,4.43,22.82   c6.34-13.24,12.67-26.44,19-39.65c0.76,0.29,1.52,0.58,2.28,0.87c-1.14,3.66-1.97,7.45-3.46,10.96   c-4.15,9.84-7.7,20.07-13.12,29.19c-4.99,8.39-3.66,15.48,0.69,25.24c5.46-13.5,10.24-25.34,15.02-37.18   c0.97,0.38,1.95,0.77,2.93,1.15c-4.47,12.36-8.48,24.91-13.56,37.01c-3.38,8.07-2.48,15.1,1.84,23.68   c5.82-13.01,11.11-24.85,16.41-36.7c1.32,2.67,1.25,4.85,0.51,6.78c-4.5,11.67-9.1,23.31-13.75,34.92   c-1.95,4.87-3.45,9.65,0.7,14.59c4.13-7.63,8.2-15.15,12.27-22.67c0.66,0.32,1.33,0.64,1.99,0.95c-2.81,7.07-4.93,14.52-8.59,21.11   c-5.62,10.15-5.59,20.1-1.15,31.85c4.25-10.6,8.13-20.28,12.02-29.97c1.46,3.31,1.13,6.06,0.34,8.68   c-2.79,9.16-5.51,18.35-8.7,27.38c-2.3,6.51-2,12.68,1.04,20.71c4.44-11.05,8.32-20.71,12.21-30.37c1.31,3.39,1.11,6.27,0.26,8.94   c-2.8,8.76-5.63,17.52-8.85,26.14c-2.28,6.11-2.85,11.98,0.57,18.83c4.21-9.43,8.18-18.33,12.15-27.24   c1.02,9.06-2.31,16.85-5.82,24.23c-6.33,13.32-2.83,25.07,3.89,36.63c4.48,7.72,7.49,9.19,16.43,7.43   c22.37-4.4,44.77-8.73,67.01-13.77c40.9-9.27,81.69-19.04,122.53-28.58c4.65-1.09,9.38-1.91,13.97-3.19   c3.94-1.1,3.82-3.66,1.84-6.67c-1.61,0-3.11-0.28-4.47,0.05c-23.61,5.64-47.22,11.27-70.79,17.1   c-20.34,5.04-40.51,10.8-60.95,15.39c-18.63,4.18-37.51,7.31-56.31,10.69c-3.57,0.64-7.33,0.55-10.98,0.35   c-4.28-0.22-6.01-3.06-4.57-6.86c4.77-12.61,10.54-24.55,24.68-29.34c6.59-2.23,13.2-4.4,19.44-6.48   c2.25-5.98,4.29-11.43,6.33-16.87c0.59,0.16,1.17,0.33,1.76,0.49c-1.07,4.75-2.14,9.5-3.52,15.61c5.13-1.03,9.27-1.86,12.28-2.46   c4.02-9.47,7.56-17.8,11.1-26.14c0.68,0.27,1.36,0.54,2.04,0.81c-2.25,7.49-4.49,14.98-7.28,24.26c5.77-1.48,9.52-2.45,11.97-3.08   c4.18-8.44,7.75-15.65,11.33-22.86c0.73,0.33,1.46,0.66,2.2,1c-2.3,6.2-4.59,12.41-7.15,19.34c8.75,0.23,13.89-2.1,16.72-9.57   c1.9-5.02,5.37-9.44,8.14-14.13c0.58,0.31,1.16,0.61,1.74,0.91c-2.4,5.83-4.8,11.66-7.3,17.72c12.48,1.9,12.33-11.17,20.26-15.39   c-1.59,4.35-2.78,7.64-4,10.97c10.57,3.2,13.81-5.26,19.73-12.11c-0.44,3.86-0.69,6.05-1.07,9.36c10.56-2.7,20.07-5.49,29.74-7.51   c8.09-1.69,13.63-5.82,17.88-12.96C330.469,311.67,346.409,293.89,364.739,278.28z M360.099,358.9   c4.03-5.11,7.31-10.81,12.16-18.19c-23.82,4.33-45.81,7.34-67.3,12.47c-33.6,8.04-66.8,17.7-100.28,26.28   c-14.57,3.74-29.45,6.28-44.09,9.77c-11.7,2.8-16.49,11.88-21.06,24.77c31.59-7.4,60.83-14.07,89.97-21.13   c32.85-7.96,65.6-16.34,98.42-24.42c8.19-2.01,16.54-3.38,24.71-5.45C355.329,362.32,358.459,360.97,360.099,358.9z M336.569,69.86   c-3.87-21.47-7.41-41.09-11.27-62.47c-18.55,3.73-36.31,7.29-55.9,11.23C289.699,39.59,309.079,58.17,336.569,69.86z" fill="#000000" data-original="#000000" style="" class=""/>
	<path style="" d="M387.589,151.92c2.05,10.77,1.61,12.25-6.14,14.14c-8,1.96-16.22,3.03-25.36,4.67   c-0.1-12.87,0.99-14.72,10.42-16.41C373.519,153.06,380.679,152.67,387.589,151.92z" fill="#fbb03b" data-original="#fbb03b" class=""/>
	<path style="" d="M369.999,282.92c6.14,14.45,11.71,27.54,17.37,40.84c-5.95,4.85-11.7,7.96-19.06,8.95   c-15.17,2.04-30.2,5-46.43,7.78C334.259,317.53,351.429,300.27,369.999,282.92z" fill="#fbb03b" data-original="#fbb03b" class=""/>
	<path style="" d="M376.279,354.19c1.59,5.02,3.17,10.04,5.26,16.64c-12.68,2.99-23.84,5.61-37.28,8.78   c1.74-4.03,2.24-5.86,3.27-7.31c0.52-0.72,2-0.8,3.06-1.08c5.11-1.33,11.1-1.42,15.08-4.3c3.8-2.74,5.51-8.38,8.14-12.74   C374.629,354.18,375.459,354.18,376.279,354.19z" fill="#fbb03b" data-original="#fbb03b" class=""/>
	<path style="" d="M374.849,174.6c4.21,11.26,1.94,15.65-8.34,18.04c-19.3,4.49-38.55,9.2-57.84,13.73   c-19.37,4.56-26.64-0.94-27.74-20.88c-0.16-2.93-0.09-5.89,0.04-8.82c0.55-11.84,5.19-19.39,18-22.53   c16.37-4.02,32.26-9.7,49.4-10.27c5.31-0.18,10.54-2.61,17.26-4.4c0.5,2.76,0.81,4.46,1.24,6.81c-1.82,0.77-3.33,1.66-4.96,2.06   c-9.26,2.28-13.14,8.44-13.49,17.64c-0.32,8.23,1.65,10.31,10.24,9.74C364.119,175.36,369.579,174.97,374.849,174.6z" fill="#fbb03b" data-original="#fbb03b" class=""/>
	<path style="" d="M368.179,268.77c0.37,4.12-0.18,6.74-3.44,9.51c-18.33,15.61-34.27,33.39-46.62,54.12   c-4.25,7.14-9.79,11.27-17.88,12.96c-9.67,2.02-19.18,4.81-29.74,7.51c0.38-3.31,0.63-5.5,1.07-9.36   c-5.92,6.85-9.16,15.31-19.73,12.11c1.22-3.33,2.41-6.62,4-10.97c-7.93,4.22-7.78,17.29-20.26,15.39c2.5-6.06,4.9-11.89,7.3-17.72   c-0.58-0.3-1.16-0.6-1.74-0.91c-2.77,4.69-6.24,9.11-8.14,14.13c-2.83,7.47-7.97,9.8-16.72,9.57c2.56-6.93,4.85-13.14,7.15-19.34   c-0.74-0.34-1.47-0.67-2.2-1c-3.58,7.21-7.15,14.42-11.33,22.86c-2.45,0.63-6.2,1.6-11.97,3.08c2.79-9.28,5.03-16.77,7.28-24.26   c-0.68-0.27-1.36-0.54-2.04-0.81c-3.54,8.34-7.08,16.67-11.1,26.14c-3.01,0.6-7.15,1.43-12.28,2.46   c1.38-6.11,2.45-10.86,3.52-15.61c-0.59-0.16-1.17-0.33-1.76-0.49c-2.04,5.44-4.08,10.89-6.33,16.87   c-6.24,2.08-12.85,4.25-19.44,6.48c-14.14,4.79-19.91,16.73-24.68,29.34c-1.44,3.8,0.29,6.64,4.57,6.86   c3.65,0.2,7.41,0.29,10.98-0.35c18.8-3.38,37.68-6.51,56.31-10.69c20.44-4.59,40.61-10.35,60.95-15.39   c23.57-5.83,47.18-11.46,70.79-17.1c1.36-0.33,2.86-0.05,4.47-0.05c1.98,3.01,2.1,5.57-1.84,6.67c-4.59,1.28-9.32,2.1-13.97,3.19   c-40.84,9.54-81.63,19.31-122.53,28.58c-22.24,5.04-44.64,9.37-67.01,13.77c-8.94,1.76-11.95,0.29-16.43-7.43   c-6.72-11.56-10.22-23.31-3.89-36.63c3.51-7.38,6.84-15.17,5.82-24.23c-3.97,8.91-7.94,17.81-12.15,27.24   c-3.42-6.85-2.85-12.72-0.57-18.83c3.22-8.62,6.05-17.38,8.85-26.14c0.85-2.67,1.05-5.55-0.26-8.94   c-3.89,9.66-7.77,19.32-12.21,30.37c-3.04-8.03-3.34-14.2-1.04-20.71c3.19-9.03,5.91-18.22,8.7-27.38   c0.79-2.62,1.12-5.37-0.34-8.68c-3.89,9.69-7.77,19.37-12.02,29.97c-4.44-11.75-4.47-21.7,1.15-31.85   c3.66-6.59,5.78-14.04,8.59-21.11c-0.66-0.31-1.33-0.63-1.99-0.95c-4.07,7.52-8.14,15.04-12.27,22.67   c-4.15-4.94-2.65-9.72-0.7-14.59c4.65-11.61,9.25-23.25,13.75-34.92c0.74-1.93,0.81-4.11-0.51-6.78   c-5.3,11.85-10.59,23.69-16.41,36.7c-4.32-8.58-5.22-15.61-1.84-23.68c5.08-12.1,9.09-24.65,13.56-37.01   c-0.98-0.38-1.96-0.77-2.93-1.15c-4.78,11.84-9.56,23.68-15.02,37.18c-4.35-9.76-5.68-16.85-0.69-25.24   c5.42-9.12,8.97-19.35,13.12-29.19c1.49-3.51,2.32-7.3,3.46-10.96c-0.76-0.29-1.52-0.58-2.28-0.87   c-6.33,13.21-12.66,26.41-19,39.65c-5.24-6.87-7.04-15.57-4.43-22.82c3.37-9.35,7.09-18.58,10.41-27.95   c1.56-4.41,2.55-9.02,3.8-13.54c-0.76-0.27-1.53-0.55-2.29-0.82c-4.95,12.08-9.89,24.16-14.98,36.59   c-7.22-13.16-7.41-16.9-2.02-28.45c4.67-10.01,9.29-20.05,13.81-30.12c1.15-2.58,1.84-5.37,2.75-8.06   c-0.71-0.32-1.42-0.63-2.13-0.95c-6.51,12.43-13.02,24.87-19.92,38.04c-4.54-7.98-3.76-14.6-0.02-21.91   c5.77-11.31,10.57-23.12,15.78-34.71c-0.79-0.37-1.58-0.74-2.37-1.11c-5.8,11.36-11.6,22.72-17.89,35.05   c-4.31-6.91-4.43-12.41-0.79-18.71c5.82-10.07,10.93-20.56,16.34-30.88c-0.68-0.39-1.36-0.78-2.03-1.16   c-5.89,9.84-11.77,19.69-18.53,31c-4.69-13.29-7.83-24.46,1.49-35.87c7.92-9.68,14.75-20.24,22.27-30.26   c1.84-2.46,4.49-4.32,7.48-7.12c7.85,43.08,15.23,84.64,23.08,126.1c3.15,16.62,8.03,32.92,10.93,49.57   c4.17,23.91,6.33,48.2,11.07,71.99c4.08,20.52,10.55,40.56,16.03,60.8c0.15,0.52,1.08,0.83,2.61,1.94   c2.13-7.98-0.26-15.33-1.44-22.37c-6.13-36.65-12.74-73.22-19.33-109.8c-1.23-6.87-2.78-13.72-4.7-20.43   c-12.14-42.49-21.76-85.57-29.76-129.02c-1.85-10.05-2.59-20.31-3.89-30.84c14.94-7.36,29.3-10.44,43.77-13.31   c29.58-5.86,59.08-12.12,88.66-17.96c10.81-2.14,21.76-3.57,32.64-5.29c3.91-0.62,6.72,0.64,9.65,3.7   c11.68,12.23,23.64,24.21,35.81,35.96c10.77,10.4,24,16.66,38.23,21.15c1.34,17.45,2.69,34.95,4.01,52.08   c-16.49,4.33-32.85,8.19-48.95,12.96c-17.88,5.29-21.83,10.74-21.94,29.45c-0.04,8.01,0.04,16.37,2.16,23.98   c3.71,13.26,10.83,18.57,24.44,17.2c14.56-1.46,28.91-5.04,43.3-7.95c7.15-1.45,14.19-3.45,22.92-5.61c0,4.85-0.21,8.74,0.04,12.6   C365.499,233.58,366.589,251.2,368.179,268.77z M256.949,105.56c1.88-6.51,1.85-13.9,1.19-20.75   c-0.98-10.23-8.43-16.19-18.74-16.56c-18.28-0.65-29.06,8.29-33.59,28.1c-2.44-0.31-4.95-0.51-7.42-0.94   c-13.97-2.42-25.31,2.56-34.89,12.39c-11.27,11.58-10.77,23.86,1.2,34.44c9.6,8.49,21.14,11.48,33.54,12.3   c12.25,0.81,24.07-1.62,36.02-3.86c4.72-0.89,7.46-2.59,8.97-6.68C247.949,131.23,253.179,118.61,256.949,105.56z M225.509,312.08   c13.92-0.4,20.4-8.59,18.8-22.47c-0.46-4.01-1.28-7.99-1.64-12.01c-0.38-4.35-1.54-8.02-6.32-9.2c-4.27-1.05-9.67,1.6-11.82,6.19   c-1.36,2.9-1.98,6.14-3.01,9.49c-2.49-0.4-4.61-0.9-6.75-1.04c-7.96-0.54-14.43,3.67-16.14,10.34c-1.67,6.49,1.07,12.87,8.71,15.85   C212.939,311.41,219.449,312.26,225.509,312.08z M210.129,231.25c8.09-12.26,9.9-26.77,9.69-41.08   c-0.15-9.75-8.41-13.58-16.26-7.71c-5.96,4.45-10.4,10.94-16.81,17.92c-8.86-2.55-18.31-1.31-26.42,5.85   c-8.3,7.34-8.51,16.24-0.28,23.63c10.73,9.63,23.33,11.77,36.91,7.64C201.639,236.07,207.829,234.74,210.129,231.25z" fill="#96f5ff" data-original="#ff96bd" class=""/>
	<path style="" d="M372.259,340.71c-4.85,7.38-8.13,13.08-12.16,18.19c-1.64,2.07-4.77,3.42-7.47,4.1   c-8.17,2.07-16.52,3.44-24.71,5.45c-32.82,8.08-65.57,16.46-98.42,24.42c-29.14,7.06-58.38,13.73-89.97,21.13   c4.57-12.89,9.36-21.97,21.06-24.77c14.64-3.49,29.52-6.03,44.09-9.77c33.48-8.58,66.68-18.24,100.28-26.28   C326.449,348.05,348.439,345.04,372.259,340.71z" fill="#f2f2f2" data-original="#f2f2f2" class=""/>
	<path style="" d="M325.299,7.39c3.86,21.38,7.4,41,11.27,62.47c-27.49-11.69-46.87-30.27-67.17-51.24   C288.989,14.68,306.749,11.12,325.299,7.39z" fill="#fbb03b" data-original="#fbb03b" class=""/>
	<path style="" d="M258.139,84.81c0.66,6.85,0.69,14.24-1.19,20.75c-3.77,13.05-9,25.67-13.72,38.44   c-1.51,4.09-4.25,5.79-8.97,6.68c-11.95,2.24-23.77,4.67-36.02,3.86c-12.4-0.82-23.94-3.81-33.54-12.3   c-11.97-10.58-12.47-22.86-1.2-34.44c9.58-9.83,20.92-14.81,34.89-12.39c2.47,0.43,4.98,0.63,7.42,0.94   c4.53-19.81,15.31-28.75,33.59-28.1C249.709,68.62,257.159,74.58,258.139,84.81z" fill="#3747d3" data-original="#c1272d" class=""/>
	<path style="" d="M244.309,289.61c1.6,13.88-4.88,22.07-18.8,22.47c-6.06,0.18-12.57-0.67-18.17-2.85   c-7.64-2.98-10.38-9.36-8.71-15.85c1.71-6.67,8.18-10.88,16.14-10.34c2.14,0.14,4.26,0.64,6.75,1.04c1.03-3.35,1.65-6.59,3.01-9.49   c2.15-4.59,7.55-7.24,11.82-6.19c4.78,1.18,5.94,4.85,6.32,9.2C243.029,281.62,243.849,285.6,244.309,289.61z" fill="#3747d3" data-original="#c1272d" class=""/>
	<path style="" d="M219.819,190.17c0.21,14.31-1.6,28.82-9.69,41.08c-2.3,3.49-8.49,4.82-13.17,6.25   c-13.58,4.13-26.18,1.99-36.91-7.64c-8.23-7.39-8.02-16.29,0.28-23.63c8.11-7.16,17.56-8.4,26.42-5.85   c6.41-6.98,10.85-13.47,16.81-17.92C211.409,176.59,219.669,180.42,219.819,190.17z" fill="#3747d3" data-original="#c1272d" class=""/>
</g>
<g xmlns="http://www.w3.org/2000/svg">
</g>
<g xmlns="http://www.w3.org/2000/svg">
</g>
<g xmlns="http://www.w3.org/2000/svg">
</g>
<g xmlns="http://www.w3.org/2000/svg">
</g>
<g xmlns="http://www.w3.org/2000/svg">
</g>
<g xmlns="http://www.w3.org/2000/svg">
</g>
<g xmlns="http://www.w3.org/2000/svg">
</g>
<g xmlns="http://www.w3.org/2000/svg">
</g>
<g xmlns="http://www.w3.org/2000/svg">
</g>
<g xmlns="http://www.w3.org/2000/svg">
</g>
<g xmlns="http://www.w3.org/2000/svg">
</g>
<g xmlns="http://www.w3.org/2000/svg">
</g>
<g xmlns="http://www.w3.org/2000/svg">
</g>
<g xmlns="http://www.w3.org/2000/svg">
</g>
<g xmlns="http://www.w3.org/2000/svg">
</g>
</g></svg>
